<svg xmlns="http://www.w3.org/2000/svg" version="1.1" xmlns:xlink="http://www.w3.org/1999/xlink" xmlns:svgjs="http://svgjs.dev/svgjs" width="1500" height="1500" viewBox="0 0 1500 1500"><rect width="1500" height="1500" fill="#ffffff"></rect><g transform="matrix(0.6666666666666666,0,0,0.6666666666666666,249.39393939393938,438.58569500674764)"><svg viewBox="0 0 396 247" data-background-color="#ffffff" preserveAspectRatio="xMidYMid meet" height="935" width="1500" xmlns="http://www.w3.org/2000/svg" xmlns:xlink="http://www.w3.org/1999/xlink"><g id="tight-bounds" transform="matrix(1,0,0,1,0.2400000000000091,-0.09999999999999432)"><svg viewBox="0 0 395.52 247.2" height="247.2" width="395.52"><g><svg></svg></g><g><svg viewBox="0 0 395.52 247.2" height="247.2" width="395.52"><g transform="matrix(1,0,0,1,100.4637320531268,47.215199999999996)"><svg viewBox="0 0 194.59253589374637 152.7696" height="152.7696" width="194.59253589374637"><g><svg viewBox="0 0 194.59253589374637 152.7696" height="152.7696" width="194.59253589374637"><g><svg viewBox="0 0 244.43135999999998 191.8967802292567" height="152.7696" width="194.59253589374637"><g transform="matrix(1,0,0,1,0,102.89869530617979)"><svg viewBox="0 0 244.43135999999998 88.99808492307692" height="88.99808492307692" width="244.43135999999998"><g id="textblocktransform"><svg viewBox="0 0 244.43135999999998 88.99808492307692" height="88.99808492307692" width="244.43135999999998" id="textblock"><g><svg viewBox="0 0 244.43135999999998 88.99808492307692" height="88.99808492307692" width="244.43135999999998"><g transform="matrix(1,0,0,1,0,0)"><svg width="244.43135999999998" viewBox="0.5 -35.5 97.5 35.5" height="88.99808492307692" data-palette-color="#0042c7"><path d="M0.5 0L8.05-35.5 15.45-35.5 20.8-15.3 34.8-35.5 42.15-35.5 34.6 0 27.75 0 32.75-23.5 20.7-6 16.95-6 12.35-23.5 7.35 0 0.5 0ZM42 0L49.55-35.5 63.85-35.5Q66.55-35.5 68.47-34.1 70.4-32.7 71.4-30.45 72.4-28.2 72.4-25.7L72.4-25.7Q72.4-23.25 71.35-20.78 70.3-18.3 68.47-16.3 66.65-14.3 64.22-13.1 61.8-11.9 59.1-11.9L59.1-11.9 51.35-11.9 48.85 0 42 0ZM52.65-17.95L59.9-17.95Q60.95-17.95 61.92-18.5 62.9-19.05 63.67-20.03 64.45-21 64.9-22.3 65.35-23.6 65.35-25.15L65.35-25.15Q65.35-26.5 64.92-27.48 64.5-28.45 63.75-28.95 63-29.45 62.1-29.45L62.1-29.45 55.1-29.45 52.65-17.95ZM66.44 0L86.69-35.5 92.84-35.5 98 0 90.89 0 89.8-8.85 78.34-8.85 73.55 0 66.44 0ZM80.5-13.7L89.64-13.7 88.09-27.65 80.5-13.7Z" opacity="1" transform="matrix(1,0,0,1,0,0)" fill="#000000" class="wordmark-text-0" data-fill-palette-color="primary" id="text-0"></path></svg></g></svg></g></svg></g></svg></g><g transform="matrix(1,0,0,1,46.68638976,0)"><svg viewBox="0 0 151.05858048 89.91173876186471" height="89.91173876186471" width="151.05858048"><g><svg xmlns="http://www.w3.org/2000/svg" xmlns:xlink="http://www.w3.org/1999/xlink" version="1.1" x="0" y="0" viewBox="0 323.9918032786885 841.9 501.1081967213115" enable-background="new 0 174.4 841.9 841.8" xml:space="preserve" width="151.05858048" height="89.91173876186471" class="icon-icon-0" data-fill-palette-color="accent" id="icon-0"><g fill="#0042c7" data-fill-palette-color="accent"><polygon points="653.3,687 619.3,692.5 699.3,504.3 732.9,498.7  " fill="#000000" data-fill-palette-color="accent"></polygon><path d="M838.6 655.9l-65.2 10.8c6.7-3.2 12-7.9 15.8-14.1 6.1-10 7.9-22.5 5.4-37.7s-8.3-26.4-17.4-33.7c-9-7.2-20.3-9.7-34-7.4-13.6 2.3-23.5 8.3-29.7 18.1-6.2 9.8-8 22.3-5.5 37.5s8.3 26.5 17.4 33.9c5.6 4.6 12 7.3 19.3 8.2l-416.5 68.6-38.9-236.7 49.1-8.1-84.6-56.3L243 373l-29.8 4.9 6.3 38.1-76-50.6L0 550.8l49.1-8L88 779.5l-66.9 11 3.3 19.9L397.5 749v76.1h80.4v-89.3l364-60L838.6 655.9zM182.3 764l-19.2-116.9 51.7-8.5L234 755.5 182.3 764zM765 638.6c-1.6 5.2-4.8 8.1-9.4 8.9-4.7 0.8-8.6-1-11.8-5.3-3.2-4.3-5.4-10.3-6.7-17.8-1.2-7.3-1-13.6 0.6-18.7 1.6-5.1 4.8-8.1 9.4-8.9 4.7-0.8 8.6 1 11.8 5.3 3.2 4.3 5.4 10.2 6.7 17.5C766.8 627.1 766.6 633.5 765 638.6z" fill="#000000" data-fill-palette-color="accent"></path><path d="M576.8 607c9.1 7.4 20.4 10 34 7.7 13.6-2.3 23.5-8.4 29.6-18.3 6.1-10 8-22.5 5.4-37.7-2.5-15.2-8.3-26.4-17.4-33.7-9-7.2-20.3-9.7-33.9-7.4-13.6 2.3-23.5 8.3-29.7 18.1-6.2 9.8-8 22.3-5.4 37.5C561.9 588.2 567.7 599.6 576.8 607zM588.9 549.5c1.6-5.1 4.8-8.1 9.4-8.9 4.7-0.8 8.6 1 11.8 5.3 3.2 4.3 5.4 10.2 6.7 17.5 1.3 7.5 1.1 13.8-0.5 19-1.6 5.1-4.8 8.1-9.4 8.9-4.7 0.8-8.6-1-11.8-5.3-3.2-4.3-5.4-10.3-6.7-17.8C587.1 560.8 587.3 554.6 588.9 549.5z" fill="#000000" data-fill-palette-color="accent"></path></g></svg></g></svg></g><g></g></svg></g></svg></g></svg></g><g><path d="M153.652 36.876A97.296 97.296 0 0 1 241.868 36.876L237.919 36.876A93.347 93.347 0 0 0 157.601 36.876L153.652 36.876M153.652 210.324A97.296 97.296 0 0 0 241.868 210.324L237.919 210.324A93.347 93.347 0 0 1 157.601 210.324L153.652 210.324" fill="#000000" stroke="transparent" data-fill-palette-color="tertiary"></path></g></svg></g><defs></defs></svg><rect width="395.52" height="247.2" fill="none" stroke="none" visibility="hidden"></rect></g></svg></g></svg>